HIERARCHY
ROOT Hips
{
	OFFSET 0.000000 0.000000 0.000000
	CHANNELS 6 Xposition Yposition Zposition Zrotation Yrotation Xrotation 
	JOINT LHipJoint
	{
		OFFSET 0.000000 0.000000 0.000000
		CHANNELS 3 Zrotation Yrotation Xrotation
		JOINT LeftUpLeg
		{
			OFFSET 1.363060 -1.794630 0.839290
			CHANNELS 3 Zrotation Yrotation Xrotation
			JOINT LeftLeg
			{
				OFFSET 2.448110 -6.726130 0.000000
				CHANNELS 3 Zrotation Yrotation Xrotation
				JOINT LeftFoot
				{
					OFFSET 2.562200 -7.039590 0.000000
					CHANNELS 3 Zrotation Yrotation Xrotation
					JOINT LeftToeBase
					{
						OFFSET 0.157640 -0.433110 2.322550
						CHANNELS 3 Zrotation Yrotation Xrotation
						End Site
						{
							OFFSET 0.000000 0.000000 0.000000
						}
					}
				}
			}
		}
	}
	JOINT RHipJoint
	{
		OFFSET 0.000000 0.000000 0.000000
		CHANNELS 3 Zrotation Yrotation Xrotation
		JOINT RightUpLeg
		{
			OFFSET -1.305520 -1.794630 0.839290
			CHANNELS 3 Zrotation Yrotation Xrotation
			JOINT RightLeg
			{
				OFFSET -2.542530 -6.985550 0.000000
				CHANNELS 3 Zrotation Yrotation Xrotation
				JOINT RightFoot
				{
					OFFSET -2.568260 -7.056230 0.000000
					CHANNELS 3 Zrotation Yrotation Xrotation
					JOINT RightToeBase
					{
						OFFSET -0.164730 -0.452590 2.363150
						CHANNELS 3 Zrotation Yrotation Xrotation
						End Site
						{
							OFFSET 0.000000 0.000000 0.000000
						}
					}
				}
			}
		}
	}
}
MOTION
Frames: 11
Frame Time: 0.008333
1.496437 15.811779 1.506738 -19.154872 -78.966299 58.984769 -9.603808 -3.062924 0.681298 -8.297219 -9.405796 -71.615112 -0.899912 2.915313 53.162635 2.887943 8.571821 -21.881153 -2.042100 -0.000000 -28.638699 7.084298 2.256923 -1.525191 11.893170 2.289024 -81.199150 -1.928390 -6.345060 75.440346 -4.197233 -21.800056 11.960348 -8.481100 -0.000000 -65.926200
1.509236 15.850018 1.530881 -20.232495 -78.586646 59.449792 -9.742277 -3.152159 0.565333 -7.999907 -8.982284 -70.703741 -0.905620 2.881522 52.765461 2.820174 8.401391 -21.742550 -1.992500 -0.000000 -28.811300 6.956578 2.370536 -1.670473 12.081653 2.307517 -81.808946 -2.102979 -6.395605 77.046138 -4.069956 -21.660451 15.337328 -9.389100 -0.000000 -65.902099
1.521705 15.891816 1.555001 -21.329603 -78.210662 59.945992 -9.888563 -3.241250 0.458158 -7.665936 -8.557828 -69.775180 -0.910537 2.841673 52.291947 2.753862 8.243543 -21.562678 -1.937100 -0.000000 -29.000301 6.823691 2.471085 -1.809731 12.294773 2.347309 -82.439862 -2.258087 -6.449046 78.607964 -3.912785 -21.176097 18.457377 -9.998700 -0.000000 -65.913801
1.533199 15.936776 1.578399 -22.421951 -77.851453 60.459259 -10.036385 -3.326888 0.359992 -7.314182 -8.135116 -68.837254 -0.916134 2.795662 51.742548 2.689958 8.099108 -21.343599 -1.876900 0.000000 -29.187500 6.693141 2.559156 -1.936201 12.516596 2.414688 -83.109071 -2.402727 -6.508843 80.129737 -3.730684 -20.344745 21.239084 -10.261200 0.000000 -66.134000
1.543738 15.984646 1.601010 -23.524659 -77.512993 61.005316 -10.184295 -3.409539 0.270312 -6.947560 -7.711788 -67.894195 -0.922298 2.743807 51.120295 2.628689 7.968177 -21.087127 -1.812600 -0.000000 -29.383800 6.566630 2.633967 -2.049333 12.749128 2.512164 -83.822578 -2.544215 -6.577163 81.610470 -3.529036 -19.188462 23.624413 -10.164100 -0.000001 -66.543300
1.553158 16.035137 1.622786 -24.643153 -77.202453 61.593360 -10.329408 -3.488630 0.187635 -6.575751 -7.285409 -66.949561 -0.929649 2.686287 50.427493 2.570456 7.850918 -20.796021 -1.745200 0.000000 -29.583000 6.446167 2.696278 -2.147445 12.988007 2.640714 -84.589794 -2.688313 -6.655430 83.045903 -3.314101 -17.755488 25.571236 -9.731500 -0.000000 -67.077000
1.561307 16.087867 1.643615 -25.783866 -76.928403 62.235026 -10.467971 -3.563393 0.109480 -6.211789 -6.852097 -66.007298 -0.939227 2.623265 49.666871 2.515655 7.747142 -20.473819 -1.675600 -0.000000 -29.772800 6.333091 2.748026 -2.227379 13.223570 2.803218 -85.422031 -2.837787 -6.743452 84.425009 -3.094015 -16.130183 27.072123 -9.030701 -0.000000 -67.746500
1.568554 16.142595 1.664139 -26.969305 -76.688652 62.950599 -10.601745 -3.636039 0.034540 -5.851557 -6.409558 -65.068165 -0.949890 2.555152 48.842897 2.464320 7.658378 -20.120506 -1.604000 0.000000 -29.995400 6.223435 2.789239 -2.292727 13.463446 2.993469 -86.319713 -2.992708 -6.840772 85.734415 -2.874201 -14.398425 28.130407 -8.140700 0.000001 -68.329500
1.574826 16.198851 1.683966 -28.200884 -76.496218 63.747505 -10.724162 -3.704816 -0.041586 -5.517574 -5.952920 -64.138378 -0.963803 2.482152 47.959371 2.417063 7.584236 -19.742151 -1.531700 0.000001 -30.195900 6.118965 2.824049 -2.336659 13.684508 3.220113 -87.298804 -3.150141 -6.944677 86.953539 -2.665247 -12.687253 28.805068 -7.177399 0.000000 -68.971300
1.580362 16.256262 1.703777 -29.496125 -76.345880 64.644191 -10.837661 -3.771974 -0.119861 -5.203770 -5.481950 -63.219766 -0.979521 2.404770 47.023204 2.374036 7.527180 -19.339116 -1.458900 0.000001 -30.411800 6.014725 2.852323 -2.362618 13.892641 3.476733 -88.359169 -3.305748 -7.053492 88.064785 -2.472318 -11.086562 29.150540 -6.227700 -0.000000 -69.487900
1.585476 16.314387 1.723672 -30.863594 -76.239558 65.649517 -10.940502 -3.837937 -0.202680 -4.916613 -4.996307 -62.317076 -0.997155 2.323529 46.041658 2.335533 7.488174 -18.915057 -1.386000 0.000000 -30.630000 5.908957 2.875810 -2.369435 14.079250 3.764112 -89.507290 -3.454062 -7.164757 89.049172 -2.301846 -9.681283 29.249900 -5.371000 -0.000001 -69.881900
